<svg id="Capa_1" data-name="Capa 1" xmlns="http://www.w3.org/2000/svg" viewBox="0 0 64.84 64.84"><path d="M8.13,59.4H7.94a2.71,2.71,0,0,1-.76-.17,2.68,2.68,0,0,1-1-.62,2.62,2.62,0,0,1-.61-1,2.71,2.71,0,0,1-.17-.76h0a1.27,1.27,0,0,1,0-.2V44.56a2.7,2.7,0,0,1,5.4,0v5.63L25.11,35.91a2.7,2.7,0,1,1,3.82,3.81L14.65,54h5.62a2.7,2.7,0,1,1,0,5.39H8.13ZM37.82,29.72a2.65,2.65,0,0,1-1.91-.79,2.69,2.69,0,0,1,0-3.82L50.19,10.83H44.56a2.7,2.7,0,0,1,0-5.4H56.9a2.71,2.71,0,0,1,.76.17,2.62,2.62,0,0,1,1,.61,2.68,2.68,0,0,1,.62,1,2.71,2.71,0,0,1,.17.76h0V20.27a2.7,2.7,0,1,1-5.39,0V14.65L39.72,28.93A2.65,2.65,0,0,1,37.82,29.72Z"/></svg>