<svg id="Capa_1" data-name="Capa 1" xmlns="http://www.w3.org/2000/svg" viewBox="0 0 99.42 99.42"><path d="M60.51,92.78a9.1,9.1,0,0,1-3.58-.73c-3.1-1.32-4.59-4.29-7.55-10.21L39.19,61.46h0l-.41-.8L38,60.23,17.58,50c-5.92-3-8.89-4.44-10.21-7.55a9.21,9.21,0,0,1,.56-8.28c1.72-2.89,4.87-4,11.13-6.11L75.44,8.85C80.8,7,83.76,6,86.76,7.07a9.16,9.16,0,0,1,5.59,5.59c1.06,3,.05,6-1.78,11.32L71.32,80.36c-2.14,6.27-3.21,9.41-6.11,11.13A9.11,9.11,0,0,1,60.51,92.78ZM60.11,84Zm.86-.06ZM47.77,58.12l9.81,19.62c1.08,2.16,2.2,4.39,2.92,5.51.56-1.21,1.36-3.56,2.14-5.85L80.35,25.56ZM16.17,38.93c1.13.72,3.35,1.83,5.51,2.91l19.6,9.8L73.85,19.08,22,36.78C19.73,37.56,17.38,38.36,16.17,38.93Zm-.7.38h0Zm.06-.86Z"/></svg>