<svg id="Capa_1" data-name="Capa 1" xmlns="http://www.w3.org/2000/svg" viewBox="0 0 74.5 74.68"><defs><style>.cls-1{fill:#292d32;}</style></defs><path class="cls-1" d="M31.43,68.68a5.71,5.71,0,0,1-4.55-2.43l-3.44-4.6-.22-.11H22.11c-4.1,0-8.71-.37-11.89-3.14C7.33,55.87,6,51.75,6,45.41V33.77C6,29,7.15,25.2,9.45,22.49s5.78-4.33,10.25-4.72a19.24,19.24,0,0,1,2.41-.13H40.74c5.23,0,9.26,1.39,12,4.13s4.13,6.78,4.13,12V45.41a19,19,0,0,1-.13,2.41c-.39,4.48-2,7.94-4.72,10.27s-6.49,3.45-11.28,3.45H39.58a.2.2,0,0,0-.12.06L36,66.26A5.69,5.69,0,0,1,31.43,68.68ZM22.11,22a14.89,14.89,0,0,0-1.91.1h-.08c-3.35.28-5.75,1.33-7.34,3.2s-2.43,4.74-2.43,8.45V45.41c0,5,.87,8.06,2.75,9.7,1.65,1.45,4.35,2.06,9,2.06h1.17A4.85,4.85,0,0,1,26.88,59v0l3.49,4.66a1.43,1.43,0,0,0,1.05.67,1.4,1.4,0,0,0,1-.67L36,59a4.55,4.55,0,0,1,3.61-1.81h1.16c3.72,0,6.56-.81,8.45-2.41s2.92-4,3.21-7.35a.19.19,0,0,1,0-.08,17.55,17.55,0,0,0,.09-1.92V33.77c0-4-1-7-2.85-8.91S44.77,22,40.74,22Zm1.08,39.52Z"/><path d="M31.43,69.72a6.73,6.73,0,0,1-5.38-2.84l-3.22-4.29h-.72c-4.29,0-9.14-.41-12.57-3.41-3.14-2.73-4.6-7.11-4.6-13.77V33.77c0-5,1.25-9.06,3.71-12s6.21-4.68,11-5.09a20.22,20.22,0,0,1,2.5-.13H40.74c5.51,0,9.8,1.49,12.74,4.43s4.44,7.23,4.44,12.74V45.41A21,21,0,0,1,57.78,48c-.41,4.73-2.12,8.42-5.09,10.94s-6.91,3.7-11.95,3.7H40l-3.22,4.29A6.73,6.73,0,0,1,31.43,69.72Zm-9.32-51a17.26,17.26,0,0,0-2.28.12c-4.22.37-7.44,1.83-9.58,4.36S7,29.25,7,33.77V45.41c0,6,1.23,9.89,3.88,12.2,2.91,2.54,7.3,2.89,11.2,2.89l1.59.1.57.43,3.45,4.6a4.55,4.55,0,0,0,7.41,0l3.81-5.08,1.8,0c4.53,0,8.1-1.08,10.6-3.21s4-5.36,4.36-9.56a18.08,18.08,0,0,0,.13-2.32V33.77c0-4.93-1.29-8.72-3.83-11.26s-6.32-3.82-11.26-3.82Zm9.32,46.67a2.42,2.42,0,0,1-1.89-1.1l-3.49-4.65a3.76,3.76,0,0,0-2.77-1.39H22.11c-4.93,0-7.84-.7-9.7-2.33-2.12-1.84-3.1-5.17-3.1-10.48V33.77c0-4,.9-7,2.67-9.12s4.41-3.26,8.05-3.57A15.88,15.88,0,0,1,22.11,21H40.74c4.31,0,7.56,1.07,9.65,3.16s3.16,5.34,3.16,9.65V45.41a16.87,16.87,0,0,1-.11,2.05c-.31,3.69-1.48,6.32-3.57,8.1s-5.15,2.66-9.13,2.66H39.58a3.47,3.47,0,0,0-2.77,1.39l-3.5,4.66A2.41,2.41,0,0,1,31.43,65.36ZM22.11,23.05a13,13,0,0,0-1.78.1c-3.19.27-5.35,1.2-6.76,2.85s-2.17,4.31-2.17,7.77V45.41c0,4.6.78,7.51,2.38,8.91s4,1.81,8.33,1.81h1.17a5.85,5.85,0,0,1,4.43,2.2L31.22,63a1.53,1.53,0,0,0,.23.25s.09-.11.19-.24l3.49-4.67a5.6,5.6,0,0,1,4.45-2.22h1.16c3.47,0,6.08-.73,7.78-2.17s2.57-3.57,2.84-6.64a16.46,16.46,0,0,0,.1-1.91V33.77c0-3.73-.86-6.48-2.54-8.17s-4.44-2.55-8.18-2.55Z"/><path class="cls-1" d="M54.57,49.78A2.17,2.17,0,0,1,53,49.11a2.13,2.13,0,0,1-.59-1.78,17.55,17.55,0,0,0,.09-1.92V33.77c0-4-1-7-2.85-8.91S44.77,22,40.74,22H22.11a14.89,14.89,0,0,0-1.91.1,2.19,2.19,0,0,1-2.45-2.35c.39-4.49,2-8,4.73-10.3S29,6,33.76,6H52.39c5.22,0,9.26,1.39,12,4.13s4.13,6.77,4.13,12V33.77c0,4.79-1.17,8.59-3.47,11.29s-5.8,4.33-10.29,4.71ZM22.5,17.64H40.74c5.23,0,9.26,1.39,12,4.13s4.13,6.78,4.13,12V45a9,9,0,0,0,4.86-2.8c1.6-1.89,2.42-4.74,2.42-8.46V22.13c0-4-1-7-2.85-8.92s-4.89-2.85-8.91-2.85H33.76c-3.72,0-6.56.82-8.45,2.43A8.86,8.86,0,0,0,22.5,17.64Z"/><path d="M54.57,50.82a3.26,3.26,0,0,1-2.33-1,3.22,3.22,0,0,1-.87-2.63,15.21,15.21,0,0,0,.09-1.79V33.77c0-3.73-.86-6.48-2.54-8.17s-4.44-2.55-8.18-2.55H22.11a13,13,0,0,0-1.78.1,3.23,3.23,0,0,1-3.62-3.48c.41-4.78,2.12-8.48,5.1-11S28.72,5,33.76,5H52.39c5.51,0,9.79,1.5,12.73,4.44s4.44,7.23,4.44,12.74V33.77c0,5-1.25,9.07-3.71,12s-6.23,4.67-11,5.08ZM22.11,21H40.74c4.31,0,7.56,1.07,9.65,3.16s3.16,5.34,3.16,9.65V45.41a16.87,16.87,0,0,1-.11,2.05,1.14,1.14,0,0,0,1.13,1.28v1l.1-1.05c4.21-.36,7.43-1.82,9.59-4.35s3.21-6.08,3.21-10.61V22.13c0-4.94-1.29-8.73-3.82-11.26S57.32,7,52.39,7H33.76c-4.53,0-8.09,1.08-10.6,3.22s-4,5.38-4.36,9.58a1.12,1.12,0,0,0,.34.92,1.14,1.14,0,0,0,.93.31A16.81,16.81,0,0,1,22.11,21Zm33.72,25.4V33.77c0-4.93-1.29-8.72-3.83-11.26s-6.32-3.82-11.26-3.82H21.17l.32-1.3A9.85,9.85,0,0,1,24.63,12c2.09-1.77,5.16-2.67,9.13-2.67H52.39c4.31,0,7.55,1.06,9.65,3.16s3.15,5.34,3.15,9.65V33.77c0,4-.9,7-2.67,9.13A9.81,9.81,0,0,1,57.12,46ZM23.92,16.6H40.74c5.51,0,9.8,1.49,12.74,4.43s4.44,7.23,4.44,12.74v9.84a7.11,7.11,0,0,0,3-2.06c1.44-1.69,2.17-4.31,2.17-7.78V22.13c0-3.74-.85-6.49-2.54-8.18s-4.44-2.54-8.17-2.54H33.76c-3.46,0-6.07.73-7.77,2.17A7.22,7.22,0,0,0,23.92,16.6Z"/><path class="cls-1" d="M41.66,43.84h0a2.91,2.91,0,1,1,0-5.82h0a2.91,2.91,0,1,1,0,5.82Z"/><path d="M41.66,44.89h0a4,4,0,1,1,4-4A4,4,0,0,1,41.63,44.89Zm0-5.83a1.87,1.87,0,1,0,0,3.74h0a1.87,1.87,0,1,0,0-3.74Z"/><path class="cls-1" d="M31.47,43.84h0a2.91,2.91,0,1,1,0-5.82h0a2.91,2.91,0,1,1,0,5.82Z"/><path d="M31.47,44.89h0a4,4,0,1,1,4-4A4,4,0,0,1,31.44,44.89Zm0-5.83a1.87,1.87,0,1,0,0,3.74h0a1.87,1.87,0,1,0,0-3.74Z"/><path class="cls-1" d="M21.28,43.84h0a2.91,2.91,0,0,1,0-5.82h0a2.91,2.91,0,0,1,0,5.82Z"/><path d="M21.28,44.89h0a4,4,0,1,1,4-4A4,4,0,0,1,21.26,44.89Zm0-5.83a1.87,1.87,0,1,0,0,3.74h0a1.87,1.87,0,1,0,0-3.74Z"/></svg>