<svg id="Capa_1" data-name="Capa 1" xmlns="http://www.w3.org/2000/svg" viewBox="0 0 72.96 101.3"><path d="M68.55,71.34,60.91,58.81V41.05A25.07,25.07,0,0,0,48,17.66a16,16,0,0,0,0-2.19A11.15,11.15,0,0,0,36.49,4.67h0A11.15,11.15,0,0,0,25,15.46h0a10,10,0,0,0,0,2.19A25.07,25.07,0,0,0,12.05,41.05V58.81L4.41,71.34a7.19,7.19,0,0,0,2.4,9.88,7.27,7.27,0,0,0,3.69,1H20.67A15.41,15.41,0,0,0,36.48,96.63,15.41,15.41,0,0,0,52.29,82.27H62.46a7.19,7.19,0,0,0,6.09-10.93ZM32.17,15.47a4,4,0,0,1,4.31-3.62,4,4,0,0,1,4.31,3.62,34.43,34.43,0,0,0-4.31,0A34.43,34.43,0,0,0,32.17,15.47Zm4.31,74a8.27,8.27,0,0,1-8.62-7.18H45.1A8.27,8.27,0,0,1,36.48,89.45Zm-26-14.37,7.7-12.47,1-1.78V41.05a22.91,22.91,0,0,1,3.45-12.18A15.41,15.41,0,0,1,36.48,22.6a15.44,15.44,0,0,1,13.8,6.27,23,23,0,0,1,3.44,12.18V60.83l1,1.78,7.7,12.47Z"/></svg>