<svg id="Capa_1" data-name="Capa 1" xmlns="http://www.w3.org/2000/svg" viewBox="0 0 74.32 84.49"><path d="M57.3,12.53a5.82,5.82,0,0,0-5.82-5.82h-40A5.58,5.58,0,0,0,5.9,12.29V60.83a5.83,5.83,0,0,0,5.82,5.82H51.48a5.83,5.83,0,0,0,5.82-5.82V12.53Zm-5.8,43.9a4.42,4.42,0,0,1-4.42,4.42h-31a4.42,4.42,0,0,1-4.43-4.42V16.77a4.42,4.42,0,0,1,4.43-4.42h31a4.42,4.42,0,0,1,4.42,4.42V56.43Z"/><path d="M59.59,17.84v5.8a3.2,3.2,0,0,1,3.2,3.2v42.1a3.21,3.21,0,0,1-3.2,3.2H25.88a3.06,3.06,0,0,1-3.05-3.06H17.19V72A5.82,5.82,0,0,0,23,77.78H62.61A5.82,5.82,0,0,0,68.42,72V23.66a5.82,5.82,0,0,0-5.81-5.82Z"/><path d="M19,25.47H44.69a2.83,2.83,0,1,0,0-5.65H19a2.83,2.83,0,1,0,0,5.65Z"/><path d="M19,34.92H44.69a2.82,2.82,0,1,0,0-5.64H19a2.82,2.82,0,1,0,0,5.64Z"/><path d="M19,44.38H44.69a2.82,2.82,0,1,0,0-5.64H19a2.82,2.82,0,1,0,0,5.64Z"/><path d="M19,53.53H44.69a2.83,2.83,0,1,0,0-5.65H19a2.83,2.83,0,1,0,0,5.65Z"/></svg>