<svg id="Capa_1" data-name="Capa 1" xmlns="http://www.w3.org/2000/svg" viewBox="0 0 75.5 73.97"><path d="M43.72,70.29a3.34,3.34,0,0,1-3.26-4l1.35-6.74a8.79,8.79,0,0,1,.45-1.72A6.76,6.76,0,0,1,43,56.46a10.51,10.51,0,0,1,1.18-1.32L58,41.29A8,8,0,0,1,69.39,52.66L55.54,66.51a9.21,9.21,0,0,1-1.32,1.18,6.8,6.8,0,0,1-1.38.74,9.58,9.58,0,0,1-1.72.44l-6.74,1.35A3,3,0,0,1,43.72,70.29Zm4.74-10c0,.12-.08.36-.12.59L48,62.71l1.84-.37.59-.12.43-.42L64.68,48a1.38,1.38,0,0,0-2-2L48.88,59.85Zm1.9,2Zm-1.94-1.94Zm0-.1h0ZM30.4,70.29H17.75c-4.13,0-6.4,0-8.53-1.09a9.83,9.83,0,0,1-4.37-4.37C3.76,62.7,3.76,60.42,3.76,56.3v-32c0-4.12,0-6.39,1.09-8.53a9.93,9.93,0,0,1,4.37-4.37c2-1,4.15-1.08,7.86-1.09V7a3.33,3.33,0,1,1,6.66,0v3.33H50.38V7A3.33,3.33,0,1,1,57,7v3.33c3.71,0,5.85.06,7.87,1.09a10,10,0,0,1,4.37,4.37c1.08,2.14,1.08,4.41,1.08,8.53v6a3.33,3.33,0,1,1-6.66,0H10.42v26c0,2.89,0,4.8.36,5.51a3.35,3.35,0,0,0,1.46,1.45c.71.37,2.62.37,5.51.37H30.4a3.33,3.33,0,1,1,0,6.66Zm-20-46.62H63.7c0-2.52,0-4.19-.36-4.85a3.28,3.28,0,0,0-1.45-1.45C61.17,17,59.27,17,56.38,17H17.75c-2.89,0-4.8,0-5.51.36a3.35,3.35,0,0,0-1.46,1.45C10.45,19.48,10.42,21.15,10.42,23.67ZM30.4,57h-10a3.33,3.33,0,0,1,0-6.66h10a3.33,3.33,0,0,1,0,6.66ZM42.06,43.65H20.41a3.33,3.33,0,0,1,0-6.66H42.06a3.33,3.33,0,0,1,0,6.66Z"/></svg>