<svg id="Capa_1" data-name="Capa 1" xmlns="http://www.w3.org/2000/svg" viewBox="0 0 70.16 87.7"><path d="M35.08,83.05a4,4,0,0,1-2.81-1.18L29,78.51C16,65.25,3.72,52.73,3.72,36.79A32.35,32.35,0,0,1,12.86,14.1a30.81,30.81,0,0,1,44.43,0,32.36,32.36,0,0,1,9.15,22.69c0,15.94-12.27,28.46-25.27,41.72-1.08,1.1-2.19,2.23-3.28,3.36A4,4,0,0,1,35.08,83.05Zm0-70.56c-13,0-23.52,10.9-23.52,24.3,0,5.7,2.11,11.36,6.66,17.81C22.5,60.7,28.37,66.68,34.59,73l.49.5.49-.5C41.78,66.68,47.66,60.7,51.94,54.6c4.55-6.45,6.66-12.11,6.66-17.81C58.6,23.39,48.05,12.49,35.08,12.49Z"/><path d="M35.08,51.69A15.68,15.68,0,1,1,50.76,36,15.7,15.7,0,0,1,35.08,51.69Zm0-23.52A7.84,7.84,0,1,0,42.92,36,7.85,7.85,0,0,0,35.08,28.17Z"/></svg>