<svg id="Capa_1" data-name="Capa 1" xmlns="http://www.w3.org/2000/svg" viewBox="0 0 98.74 86.62"><path d="M68.7,81.7a2.71,2.71,0,0,1-2.6-2.28l-.59-4.13a18.79,18.79,0,0,1-1.86-1L59.09,76a2.85,2.85,0,0,1-2.8-1.54L52.4,67.94a2.69,2.69,0,0,1,.69-3.52l3.19-2.52a16,16,0,0,1,0-2.4L53.06,57a2.72,2.72,0,0,1-.67-3.52l4-6.63a3,3,0,0,1,3-1.35l.36.1,3.92,1.57a19.39,19.39,0,0,1,1.84-1L66.09,42a2.84,2.84,0,0,1,2.72-2.36l.07,3.54a.73.73,0,0,0,.4-.13V39.94h7.24a2.71,2.71,0,0,1,2.64,2.46l.57,4a18.08,18.08,0,0,1,1.83,1l4.59-1.83A2.87,2.87,0,0,1,89,47.1l3.89,6.44a2.8,2.8,0,0,1-.63,3.51L89,59.66a10.29,10.29,0,0,1,0,1.24,8.54,8.54,0,0,1,0,1l3.28,2.59a2.69,2.69,0,0,1,.67,3.48l-4,6.67A3,3,0,0,1,86.11,76l-.67-.13-3.87-1.59c-.58.37-1.18.71-1.79,1l-.59,4.11a2.73,2.73,0,0,1-2.62,2.32H68.7Zm-4.41-3.55h0Zm-.17-7.93.8.59a13.39,13.39,0,0,0,2.88,1.62l.94.39.76,5.33h6.28l.75-5.29.9-.41a18.4,18.4,0,0,0,2.93-1.66l.8-.56,5,2.06,3.3-5.52-4.13-3.26.06-.93a16.64,16.64,0,0,0,0-1.73,11.41,11.41,0,0,0,0-1.86l-.09-1,4.18-3.29-3.3-5.48-5,2.16-.82-.57a14,14,0,0,0-2.91-1.6l-.94-.38-.76-5.38H69.46l-.71,5.08-.93.39a16.94,16.94,0,0,0-2.95,1.62l-.78.54-5-2-3.3,5.49L60,57.94l-.12,1a13.9,13.9,0,0,0,0,3.53l.12,1-4.19,3.31,3.29,5.49Zm21.74,2.55a.21.21,0,0,1,0,.06Zm-31-.07,0,.06S54.9,72.72,54.89,72.7ZM90,67.23l0,0Zm-39.24,0,0,0Zm0-13h0Zm35.12-5.41s0,0,0,.06Zm-14.72-6a.17.17,0,0,0,0,.07Zm-24,31.25H5.47V64.64c0-9.54,14.24-17,32.43-17a58.87,58.87,0,0,1,6.64.25l2.51.25L46,50.4a24.64,24.64,0,0,0,0,21.12ZM9,70.51h32.7a28.09,28.09,0,0,1,.07-19.28c-1.27-.07-2.55-.09-3.82-.06h0C22.25,51.17,9,57.34,9,64.64Zm64.13-2.13c-.21,0-.42,0-.62,0a7.55,7.55,0,0,1,0-15h0a7.55,7.55,0,0,1,1.26,15C73.56,68.38,73.35,68.38,73.14,68.38Zm-.33-11.52h0a4,4,0,0,0,0,8,3.64,3.64,0,0,0,.66,0,4,4,0,0,0-.66-8ZM37.48,39.19a17.14,17.14,0,0,1,0-34.27h0A17.11,17.11,0,0,1,54.62,22,17.16,17.16,0,0,1,37.48,39.19Zm0-30.72a13.55,13.55,0,1,0,9.62,4,13.44,13.44,0,0,0-9.58-4Z"/><path d="M68.7,82.74a3.75,3.75,0,0,1-3.63-3.15L64.55,76c-.34-.18-.68-.37-1-.57L59.09,77a3.75,3.75,0,0,1-3.75-2.16l-1-1.69L54,73.3l.26-.19,0-.08-.29.11.28-.13L51.5,68.48a3.24,3.24,0,0,1-.29-.63l-1.1-1.44.41.49-.37-.52,1,1.25a3.76,3.76,0,0,1,1.33-4l2.75-2.17c0-.47,0-.95,0-1.42l-2.8-2.21a3.78,3.78,0,0,1-1.28-4l-1,1.25.44-.56-.46.55,1-1.3a4.3,4.3,0,0,1,.34-.76l4-6.65a4,4,0,0,1,4.08-1.84l.47.13L63.57,46c.33-.19.65-.37,1-.54l.51-3.55a3.89,3.89,0,0,1,3.73-3.26l1,0v.3h6.68a3.75,3.75,0,0,1,3.69,3.41l.48,3.38c.33.17.65.35,1,.53l4.49-1.71A3.8,3.8,0,0,1,90,46.67L93.78,53a3.84,3.84,0,0,1-.85,4.85L90,60.17c0,.27,0,.55,0,.82a3.42,3.42,0,0,1,0,.35l2.88,2.28a3.7,3.7,0,0,1,.93,4.83l-4,6.67A3.83,3.83,0,0,1,86.11,77l-.88-.15-3.56-1.45-.93.53-.51,3.58a3.82,3.82,0,0,1-3.63,3.22H68.84l-.14-1,.08-1h7.79a1.68,1.68,0,0,0,1.59-1.45l.66-4.62.48-.25c.59-.3,1.16-.62,1.72-1l.45-.29,4.85,1.87A1.79,1.79,0,0,0,88,74.09l4-6.7a1.63,1.63,0,0,0-.4-2.11l-3.7-2.92v-.51c0-.33,0-.62,0-.84,0-.58,0-1,0-1.34v-.52l3.71-2.92A1.77,1.77,0,0,0,92,54L88.1,47.64a1.74,1.74,0,0,0-1.75-1l-4.9,1.95L81,48.27a15.9,15.9,0,0,0-1.72-.94l-.5-.24-.65-4.54A1.68,1.68,0,0,0,76.48,41H70.32v1.46h6.33l.8,5.68.39.15A16,16,0,0,1,81,50l.33.24,5.3-2.3L90.84,55,86.39,58.5l0,.4a12.23,12.23,0,0,1,0,2,12.44,12.44,0,0,1,0,1.73l0,.38,4.27,3.37h0l.15.12-4.1,6.85h0l-.14.23-5.29-2.18-.33.22a19.06,19.06,0,0,1-3.11,1.77l-.36.16-.8,5.62h-8.1l-.8-5.64-.38-.16a14.43,14.43,0,0,1-3.11-1.75L64,71.41l-5.28,2.16-4.23-7L58.91,63l0-.41a15.1,15.1,0,0,1,0-3.8l0-.41-4.46-3.52,4.23-7L64,49.94l.32-.22A17.71,17.71,0,0,1,67.42,48l.37-.16.51-3.57h-.45l-.06-3.19a1.9,1.9,0,0,0-.67,1.14l-.65,4.58-.5.25a18.5,18.5,0,0,0-1.75,1l-.45.28L59.1,46.47a1.93,1.93,0,0,0-1.85.92l-4,6.59a1.67,1.67,0,0,0,.42,2.15L57.36,59l0,.55a17,17,0,0,0,0,2.26l0,.55-3.62,2.86a1.65,1.65,0,0,0-.44,2.17l3.88,6.47a1.78,1.78,0,0,0,1.73,1l4.87-1.84.44.29a15.7,15.7,0,0,0,1.75,1l.5.24.66,4.68a1.66,1.66,0,0,0,1.57,1.38ZM64.26,69l1.28.94a12.18,12.18,0,0,0,2.66,1.49l1.49.62.72,5h4.47l.7-5L77,71.5a16.76,16.76,0,0,0,2.76-1.57L81,69.05,85.72,71l2.36-4-3.84-3,.09-1.47a10.82,10.82,0,0,0,0-1.61,12.41,12.41,0,0,0,0-1.83l-.14-1.52,3.9-3.07-2.36-3.91-4.7,2-1.29-.92a13.38,13.38,0,0,0-2.7-1.48l-1.5-.61-.72-5.07H70.37L69.7,49.3l-1.47.62a15.12,15.12,0,0,0-2.76,1.52l-1.25.86-4.66-1.87-2.37,3.94,4,3.12-.21,1.58a12.7,12.7,0,0,0,0,3.26l.21,1.58L57.2,67,59.56,71ZM51.14,53.69l-.08.11.08-.1Zm13.2,25.5,0-.4v.4h0l0-2.09h.06ZM48.82,75.1H4.42V64.64c0-10.12,14.71-18,33.48-18.06a56.33,56.33,0,0,1,6.74.25l4,.39-1.71,3.62a23.53,23.53,0,0,0,0,20.24ZM6.51,73h39L45,72a25.66,25.66,0,0,1,0-22l.44-.94-1-.1a54.49,54.49,0,0,0-6.51-.24c-17.63,0-31.42,7-31.42,16ZM43.2,71.55H8V64.64c0-8,13.44-14.51,30-14.51,1.31,0,2.61,0,3.91,0l1.42.07-.49,1.34a27.1,27.1,0,0,0-.06,18.56ZM10.06,69.46H40.27a29.2,29.2,0,0,1,.07-17.24c-.79,0-1.57,0-2.35,0-14.91,0-27.93,5.8-27.93,12.42Zm63.08,0c-.24,0-.47,0-.71,0a8.59,8.59,0,1,1,1.42,0C73.62,69.42,73.38,69.43,73.14,69.43Zm0-15.09-.54,0a6.53,6.53,0,1,0,.54,0Zm0,11.54-.42,0a5,5,0,0,1,0-10h0a5,5,0,1,1,.84,10Zm-.24-8h0a2.95,2.95,0,0,0,0,5.88h.49a3,3,0,0,0-.49-5.88ZM37.48,40.24A18.18,18.18,0,1,1,50.35,9.19,18,18,0,0,1,55.66,22,18.21,18.21,0,0,1,37.48,40.24ZM37.52,6A16.09,16.09,0,1,0,53.57,22a16,16,0,0,0-16-16Zm0,30.72a14.63,14.63,0,1,1,0-29.26h0a14.63,14.63,0,0,1,0,29.26Zm0-27.17a12.5,12.5,0,1,0,8.89,3.66,12.55,12.55,0,0,0-8.89-3.66Z"/></svg>